# xmcd
# 
# Track frame offsets:
#     150
#     18597
#     31494
#     55545
#     81960
#     94787
#     113412
#     127550
#     142837
#     160435
#     176840
#     196710
#     209697
#     228222
#     247680
# 
# Disc length: 3505
# 
# Revision: 2
# Processed by: cddbd v1.5.2PL0 Copyright (c) Steve Scherf et al.
# Submitted via: BonkEnc v1.7.0
# 
DISCID=b30daf0f
DTITLE=MPM - Estado do Maranhão - MPM
DYEAR=0
DGENRE=Folklore
TTITLE0=Bumba Meu Boi de Axixa - Bela Mocidade
TTITLE1=Nenem Bragança - Ave de Arribação
TTITLE2=Mano Borges - Bangladesh
TTITLE3=Rosa Reis - Carinho
TTITLE4=Serrinha e Companhia - Das Cinzas A Paixao
TTITLE5=Djalma Chaves - Gata e Leoa
TTITLE6=Niceas Dumont - Haja Deus
TTITLE7=Cesar Nascimento - Ilha Magnetica
TTITLE8=Tiao Carvalho - Itamirim
TTITLE9=Nosly Jr - June
TTITLE10=Boizinho Barrica - Lua Cheia
TTITLE11=Mochel - Madre Deus
TTITLE12=Claudio Pinheiro - Gabriel Melonio - Oração Latina
TTITLE13=Bicho Terra - Vou Passear - Curupira
TTITLE14=Gerude - Jamaica São Luis
EXTD=
EXTT0=
EXTT1=
EXTT2=
EXTT3=
EXTT4=
EXTT5=
EXTT6=
EXTT7=
EXTT8=
EXTT9=
EXTT10=
EXTT11=
EXTT12=
EXTT13=
EXTT14=
PLAYORDER=
